<mxfile host="app.diagrams.net" agent="Mozilla/5.0 (Windows NT 10.0; Win64; x64) AppleWebKit/537.36 (KHTML, like Gecko) Chrome/131.0.0.0 Safari/537.36" version="25.0.3">
  <diagram name="Page-1" id="pRVnyKzGD7VHnKBhjzHD">
    <mxGraphModel dx="1834" dy="739" grid="0" gridSize="10" guides="1" tooltips="1" connect="1" arrows="1" fold="1" page="0" pageScale="1" pageWidth="827" pageHeight="1169" math="0" shadow="0">
      <root>
        <mxCell id="0" />
        <mxCell id="1" parent="0" />
        <mxCell id="kd6A2JkcI9nODMH8M5Jd-55" value="&lt;b&gt;&lt;font style=&quot;font-size: 15px;&quot;&gt;Store branch&lt;/font&gt;&lt;/b&gt;" style="swimlane;fontStyle=0;childLayout=stackLayout;horizontal=1;startSize=26;horizontalStack=0;resizeParent=1;resizeParentMax=0;resizeLast=0;collapsible=1;marginBottom=0;whiteSpace=wrap;html=1;" parent="1" vertex="1">
          <mxGeometry x="320" y="415" width="149" height="98" as="geometry" />
        </mxCell>
        <mxCell id="kd6A2JkcI9nODMH8M5Jd-130" value="StoreBranchId &lt;b&gt;(PK)&lt;/b&gt;" style="text;strokeColor=none;fillColor=none;align=left;verticalAlign=top;spacingLeft=4;spacingRight=4;overflow=hidden;rotatable=0;points=[[0,0.5],[1,0.5]];portConstraint=eastwest;whiteSpace=wrap;html=1;fontSize=14;" parent="kd6A2JkcI9nODMH8M5Jd-55" vertex="1">
          <mxGeometry y="26" width="149" height="35" as="geometry" />
        </mxCell>
        <mxCell id="kd6A2JkcI9nODMH8M5Jd-129" value="&lt;span style=&quot;background-color: initial;&quot;&gt;- has_warehouse&lt;/span&gt;" style="text;strokeColor=none;fillColor=none;align=left;verticalAlign=top;spacingLeft=4;spacingRight=4;overflow=hidden;rotatable=0;points=[[0,0.5],[1,0.5]];portConstraint=eastwest;whiteSpace=wrap;html=1;fontSize=14;" parent="kd6A2JkcI9nODMH8M5Jd-55" vertex="1">
          <mxGeometry y="61" width="149" height="37" as="geometry" />
        </mxCell>
        <mxCell id="kd6A2JkcI9nODMH8M5Jd-58" value="&lt;b&gt;&lt;font style=&quot;font-size: 15px;&quot;&gt;Address&lt;/font&gt;&lt;/b&gt;" style="swimlane;fontStyle=0;childLayout=stackLayout;horizontal=1;startSize=26;fillColor=none;horizontalStack=0;resizeParent=1;resizeParentMax=0;resizeLast=0;collapsible=1;marginBottom=0;whiteSpace=wrap;html=1;" parent="1" vertex="1">
          <mxGeometry x="813" y="415" width="120" height="186" as="geometry" />
        </mxCell>
        <mxCell id="kd6A2JkcI9nODMH8M5Jd-59" value="AddressId &lt;b&gt;(PK)&lt;/b&gt;" style="text;strokeColor=none;fillColor=none;align=left;verticalAlign=top;spacingLeft=4;spacingRight=4;overflow=hidden;rotatable=0;points=[[0,0.5],[1,0.5]];portConstraint=eastwest;whiteSpace=wrap;html=1;fontSize=14;" parent="kd6A2JkcI9nODMH8M5Jd-58" vertex="1">
          <mxGeometry y="26" width="120" height="26" as="geometry" />
        </mxCell>
        <mxCell id="kd6A2JkcI9nODMH8M5Jd-131" value="- city" style="text;strokeColor=none;fillColor=none;align=left;verticalAlign=top;spacingLeft=4;spacingRight=4;overflow=hidden;rotatable=0;points=[[0,0.5],[1,0.5]];portConstraint=eastwest;whiteSpace=wrap;html=1;fontSize=14;" parent="kd6A2JkcI9nODMH8M5Jd-58" vertex="1">
          <mxGeometry y="52" width="120" height="26" as="geometry" />
        </mxCell>
        <mxCell id="kd6A2JkcI9nODMH8M5Jd-60" value="- street" style="text;strokeColor=none;fillColor=none;align=left;verticalAlign=top;spacingLeft=4;spacingRight=4;overflow=hidden;rotatable=0;points=[[0,0.5],[1,0.5]];portConstraint=eastwest;whiteSpace=wrap;html=1;fontSize=14;" parent="kd6A2JkcI9nODMH8M5Jd-58" vertex="1">
          <mxGeometry y="78" width="120" height="26" as="geometry" />
        </mxCell>
        <mxCell id="kd6A2JkcI9nODMH8M5Jd-61" value="- zip_code" style="text;strokeColor=none;fillColor=none;align=left;verticalAlign=top;spacingLeft=4;spacingRight=4;overflow=hidden;rotatable=0;points=[[0,0.5],[1,0.5]];portConstraint=eastwest;whiteSpace=wrap;html=1;fontSize=14;" parent="kd6A2JkcI9nODMH8M5Jd-58" vertex="1">
          <mxGeometry y="104" width="120" height="82" as="geometry" />
        </mxCell>
        <mxCell id="kd6A2JkcI9nODMH8M5Jd-65" value="&lt;b&gt;&lt;font style=&quot;font-size: 15px;&quot;&gt;Customer&lt;/font&gt;&lt;/b&gt;" style="swimlane;fontStyle=0;childLayout=stackLayout;horizontal=1;startSize=26;fillColor=none;horizontalStack=0;resizeParent=1;resizeParentMax=0;resizeLast=0;collapsible=1;marginBottom=0;whiteSpace=wrap;html=1;" parent="1" vertex="1">
          <mxGeometry x="347" y="719" width="120" height="226" as="geometry" />
        </mxCell>
        <mxCell id="kd6A2JkcI9nODMH8M5Jd-132" value="CustomerId &lt;b&gt;(PK)&lt;/b&gt;" style="text;strokeColor=none;fillColor=none;align=left;verticalAlign=top;spacingLeft=4;spacingRight=4;overflow=hidden;rotatable=0;points=[[0,0.5],[1,0.5]];portConstraint=eastwest;whiteSpace=wrap;html=1;fontSize=14;" parent="kd6A2JkcI9nODMH8M5Jd-65" vertex="1">
          <mxGeometry y="26" width="120" height="26" as="geometry" />
        </mxCell>
        <mxCell id="kd6A2JkcI9nODMH8M5Jd-66" value="-&amp;nbsp;given_name" style="text;strokeColor=none;fillColor=none;align=left;verticalAlign=top;spacingLeft=4;spacingRight=4;overflow=hidden;rotatable=0;points=[[0,0.5],[1,0.5]];portConstraint=eastwest;whiteSpace=wrap;html=1;fontSize=14;" parent="kd6A2JkcI9nODMH8M5Jd-65" vertex="1">
          <mxGeometry y="52" width="120" height="26" as="geometry" />
        </mxCell>
        <mxCell id="kd6A2JkcI9nODMH8M5Jd-67" value="-&amp;nbsp;family_name" style="text;strokeColor=none;fillColor=none;align=left;verticalAlign=top;spacingLeft=4;spacingRight=4;overflow=hidden;rotatable=0;points=[[0,0.5],[1,0.5]];portConstraint=eastwest;whiteSpace=wrap;html=1;fontSize=14;" parent="kd6A2JkcI9nODMH8M5Jd-65" vertex="1">
          <mxGeometry y="78" width="120" height="26" as="geometry" />
        </mxCell>
        <mxCell id="kd6A2JkcI9nODMH8M5Jd-68" value="- birth_date" style="text;strokeColor=none;fillColor=none;align=left;verticalAlign=top;spacingLeft=4;spacingRight=4;overflow=hidden;rotatable=0;points=[[0,0.5],[1,0.5]];portConstraint=eastwest;whiteSpace=wrap;html=1;fontSize=14;" parent="kd6A2JkcI9nODMH8M5Jd-65" vertex="1">
          <mxGeometry y="104" width="120" height="26" as="geometry" />
        </mxCell>
        <mxCell id="kd6A2JkcI9nODMH8M5Jd-69" value="-&amp;nbsp;phone_number" style="text;strokeColor=none;fillColor=none;align=left;verticalAlign=top;spacingLeft=4;spacingRight=4;overflow=hidden;rotatable=0;points=[[0,0.5],[1,0.5]];portConstraint=eastwest;whiteSpace=wrap;html=1;fontSize=14;" parent="kd6A2JkcI9nODMH8M5Jd-65" vertex="1">
          <mxGeometry y="130" width="120" height="96" as="geometry" />
        </mxCell>
        <mxCell id="kd6A2JkcI9nODMH8M5Jd-74" value="&lt;b&gt;&lt;font style=&quot;font-size: 15px;&quot;&gt;Loyalty Card&lt;/font&gt;&lt;/b&gt;" style="swimlane;fontStyle=0;childLayout=stackLayout;horizontal=1;startSize=26;fillColor=none;horizontalStack=0;resizeParent=1;resizeParentMax=0;resizeLast=0;collapsible=1;marginBottom=0;whiteSpace=wrap;html=1;" parent="1" vertex="1">
          <mxGeometry x="-171" y="725" width="139" height="226" as="geometry" />
        </mxCell>
        <mxCell id="kd6A2JkcI9nODMH8M5Jd-133" value="LoyaltyCardId &lt;b&gt;(PK)&lt;/b&gt;" style="text;strokeColor=none;fillColor=none;align=left;verticalAlign=top;spacingLeft=4;spacingRight=4;overflow=hidden;rotatable=0;points=[[0,0.5],[1,0.5]];portConstraint=eastwest;whiteSpace=wrap;html=1;fontSize=14;" parent="kd6A2JkcI9nODMH8M5Jd-74" vertex="1">
          <mxGeometry y="26" width="139" height="26" as="geometry" />
        </mxCell>
        <mxCell id="kd6A2JkcI9nODMH8M5Jd-75" value="-&amp;nbsp;number" style="text;strokeColor=none;fillColor=none;align=left;verticalAlign=top;spacingLeft=4;spacingRight=4;overflow=hidden;rotatable=0;points=[[0,0.5],[1,0.5]];portConstraint=eastwest;whiteSpace=wrap;html=1;fontSize=14;" parent="kd6A2JkcI9nODMH8M5Jd-74" vertex="1">
          <mxGeometry y="52" width="139" height="26" as="geometry" />
        </mxCell>
        <mxCell id="kd6A2JkcI9nODMH8M5Jd-76" value="-&amp;nbsp;points" style="text;strokeColor=none;fillColor=none;align=left;verticalAlign=top;spacingLeft=4;spacingRight=4;overflow=hidden;rotatable=0;points=[[0,0.5],[1,0.5]];portConstraint=eastwest;whiteSpace=wrap;html=1;fontSize=14;" parent="kd6A2JkcI9nODMH8M5Jd-74" vertex="1">
          <mxGeometry y="78" width="139" height="148" as="geometry" />
        </mxCell>
        <mxCell id="kd6A2JkcI9nODMH8M5Jd-81" value="&lt;b&gt;&lt;font style=&quot;font-size: 15px;&quot;&gt;Employee&lt;/font&gt;&lt;/b&gt;" style="swimlane;fontStyle=0;childLayout=stackLayout;horizontal=1;startSize=26;fillColor=none;horizontalStack=0;resizeParent=1;resizeParentMax=0;resizeLast=0;collapsible=1;marginBottom=0;whiteSpace=wrap;html=1;" parent="1" vertex="1">
          <mxGeometry x="-197" y="415" width="120" height="113" as="geometry" />
        </mxCell>
        <mxCell id="kd6A2JkcI9nODMH8M5Jd-82" value="EmployeeId &lt;b&gt;(PK)&lt;/b&gt;" style="text;strokeColor=none;fillColor=none;align=left;verticalAlign=top;spacingLeft=4;spacingRight=4;overflow=hidden;rotatable=0;points=[[0,0.5],[1,0.5]];portConstraint=eastwest;whiteSpace=wrap;html=1;fontSize=14;" parent="kd6A2JkcI9nODMH8M5Jd-81" vertex="1">
          <mxGeometry y="26" width="120" height="26" as="geometry" />
        </mxCell>
        <mxCell id="kd6A2JkcI9nODMH8M5Jd-83" value="- given_name" style="text;strokeColor=none;fillColor=none;align=left;verticalAlign=top;spacingLeft=4;spacingRight=4;overflow=hidden;rotatable=0;points=[[0,0.5],[1,0.5]];portConstraint=eastwest;whiteSpace=wrap;html=1;fontSize=14;" parent="kd6A2JkcI9nODMH8M5Jd-81" vertex="1">
          <mxGeometry y="52" width="120" height="30" as="geometry" />
        </mxCell>
        <mxCell id="kd6A2JkcI9nODMH8M5Jd-128" value="-&amp;nbsp;family_name" style="text;strokeColor=none;fillColor=none;align=left;verticalAlign=top;spacingLeft=4;spacingRight=4;overflow=hidden;rotatable=0;points=[[0,0.5],[1,0.5]];portConstraint=eastwest;whiteSpace=wrap;html=1;fontSize=14;" parent="kd6A2JkcI9nODMH8M5Jd-81" vertex="1">
          <mxGeometry y="82" width="120" height="31" as="geometry" />
        </mxCell>
        <mxCell id="kd6A2JkcI9nODMH8M5Jd-88" value="&lt;b&gt;&lt;font style=&quot;font-size: 15px;&quot;&gt;Cash Register&lt;/font&gt;&lt;/b&gt;" style="swimlane;fontStyle=0;childLayout=stackLayout;horizontal=1;startSize=26;fillColor=none;horizontalStack=0;resizeParent=1;resizeParentMax=0;resizeLast=0;collapsible=1;marginBottom=0;whiteSpace=wrap;html=1;" parent="1" vertex="1">
          <mxGeometry x="314.5" y="39.5" width="140" height="129" as="geometry" />
        </mxCell>
        <mxCell id="kd6A2JkcI9nODMH8M5Jd-89" value="CashRegisterId &lt;b&gt;(PK)&lt;/b&gt;" style="text;strokeColor=none;fillColor=none;align=left;verticalAlign=top;spacingLeft=4;spacingRight=4;overflow=hidden;rotatable=0;points=[[0,0.5],[1,0.5]];portConstraint=eastwest;whiteSpace=wrap;html=1;fontSize=14;" parent="kd6A2JkcI9nODMH8M5Jd-88" vertex="1">
          <mxGeometry y="26" width="140" height="35" as="geometry" />
        </mxCell>
        <mxCell id="kd6A2JkcI9nODMH8M5Jd-112" value="-&amp;nbsp;number" style="text;strokeColor=none;fillColor=none;align=left;verticalAlign=top;spacingLeft=4;spacingRight=4;overflow=hidden;rotatable=0;points=[[0,0.5],[1,0.5]];portConstraint=eastwest;whiteSpace=wrap;html=1;fontSize=14;" parent="kd6A2JkcI9nODMH8M5Jd-88" vertex="1">
          <mxGeometry y="61" width="140" height="31" as="geometry" />
        </mxCell>
        <mxCell id="kd6A2JkcI9nODMH8M5Jd-90" value="&lt;div&gt;&lt;font style=&quot;font-size: 15px;&quot;&gt;- is_self_checkout&lt;/font&gt;&lt;/div&gt;" style="text;strokeColor=none;fillColor=none;align=left;verticalAlign=top;spacingLeft=4;spacingRight=4;overflow=hidden;rotatable=0;points=[[0,0.5],[1,0.5]];portConstraint=eastwest;whiteSpace=wrap;html=1;" parent="kd6A2JkcI9nODMH8M5Jd-88" vertex="1">
          <mxGeometry y="92" width="140" height="37" as="geometry" />
        </mxCell>
        <mxCell id="kd6A2JkcI9nODMH8M5Jd-96" value="1..1" style="text;strokeColor=none;fillColor=none;align=left;verticalAlign=top;spacingLeft=4;spacingRight=4;overflow=hidden;rotatable=0;points=[[0,0.5],[1,0.5]];portConstraint=eastwest;whiteSpace=wrap;html=1;" parent="1" vertex="1">
          <mxGeometry x="-157" y="385" width="40" height="26" as="geometry" />
        </mxCell>
        <mxCell id="kd6A2JkcI9nODMH8M5Jd-108" value="Leads" style="swimlane;fontStyle=0;childLayout=stackLayout;horizontal=1;startSize=30;horizontalStack=0;resizeParent=1;resizeParentMax=0;resizeLast=0;collapsible=1;marginBottom=0;whiteSpace=wrap;html=1;fontSize=15;" parent="1" vertex="1">
          <mxGeometry x="-144" y="157" width="179" height="90" as="geometry" />
        </mxCell>
        <mxCell id="kd6A2JkcI9nODMH8M5Jd-110" value="CashRegisterId&amp;nbsp;&lt;b&gt;(FK)&lt;/b&gt;" style="text;strokeColor=none;fillColor=none;align=left;verticalAlign=middle;spacingLeft=4;spacingRight=4;overflow=hidden;points=[[0,0.5],[1,0.5]];portConstraint=eastwest;rotatable=0;whiteSpace=wrap;html=1;fontSize=15;" parent="kd6A2JkcI9nODMH8M5Jd-108" vertex="1">
          <mxGeometry y="30" width="179" height="30" as="geometry" />
        </mxCell>
        <mxCell id="kd6A2JkcI9nODMH8M5Jd-111" value="EmloyeeId &lt;b&gt;(FK)&lt;/b&gt;" style="text;strokeColor=none;fillColor=none;align=left;verticalAlign=middle;spacingLeft=4;spacingRight=4;overflow=hidden;points=[[0,0.5],[1,0.5]];portConstraint=eastwest;rotatable=0;whiteSpace=wrap;html=1;fontSize=15;" parent="kd6A2JkcI9nODMH8M5Jd-108" vertex="1">
          <mxGeometry y="60" width="179" height="30" as="geometry" />
        </mxCell>
        <mxCell id="kd6A2JkcI9nODMH8M5Jd-113" value="&lt;span style=&quot;font-size: 14px; text-wrap-mode: nowrap;&quot;&gt;LocatedAt&lt;/span&gt;" style="swimlane;fontStyle=0;childLayout=stackLayout;horizontal=1;startSize=30;horizontalStack=0;resizeParent=1;resizeParentMax=0;resizeLast=0;collapsible=1;marginBottom=0;whiteSpace=wrap;html=1;fontSize=15;" parent="1" vertex="1">
          <mxGeometry x="300" y="253" width="179" height="90" as="geometry" />
        </mxCell>
        <mxCell id="kd6A2JkcI9nODMH8M5Jd-114" value="CashRegisterId&amp;nbsp;&lt;b&gt;(FK)&lt;/b&gt;" style="text;strokeColor=none;fillColor=none;align=left;verticalAlign=middle;spacingLeft=4;spacingRight=4;overflow=hidden;points=[[0,0.5],[1,0.5]];portConstraint=eastwest;rotatable=0;whiteSpace=wrap;html=1;fontSize=15;" parent="kd6A2JkcI9nODMH8M5Jd-113" vertex="1">
          <mxGeometry y="30" width="179" height="30" as="geometry" />
        </mxCell>
        <mxCell id="kd6A2JkcI9nODMH8M5Jd-115" value="StoreBranchId&amp;nbsp;&lt;b&gt;(FK)&lt;/b&gt;" style="text;strokeColor=none;fillColor=none;align=left;verticalAlign=middle;spacingLeft=4;spacingRight=4;overflow=hidden;points=[[0,0.5],[1,0.5]];portConstraint=eastwest;rotatable=0;whiteSpace=wrap;html=1;fontSize=15;" parent="kd6A2JkcI9nODMH8M5Jd-113" vertex="1">
          <mxGeometry y="60" width="179" height="30" as="geometry" />
        </mxCell>
        <mxCell id="kd6A2JkcI9nODMH8M5Jd-116" value="WorksAt" style="swimlane;fontStyle=0;childLayout=stackLayout;horizontal=1;startSize=30;horizontalStack=0;resizeParent=1;resizeParentMax=0;resizeLast=0;collapsible=1;marginBottom=0;whiteSpace=wrap;html=1;fontSize=15;" parent="1" vertex="1">
          <mxGeometry x="35" y="415" width="179" height="90" as="geometry" />
        </mxCell>
        <mxCell id="kd6A2JkcI9nODMH8M5Jd-117" value="StoreBranchId&amp;nbsp;&lt;b&gt;(FK)&lt;/b&gt;" style="text;strokeColor=none;fillColor=none;align=left;verticalAlign=middle;spacingLeft=4;spacingRight=4;overflow=hidden;points=[[0,0.5],[1,0.5]];portConstraint=eastwest;rotatable=0;whiteSpace=wrap;html=1;fontSize=15;" parent="kd6A2JkcI9nODMH8M5Jd-116" vertex="1">
          <mxGeometry y="30" width="179" height="30" as="geometry" />
        </mxCell>
        <mxCell id="kd6A2JkcI9nODMH8M5Jd-118" value="EmloyeeId &lt;b&gt;(FK)&lt;/b&gt;" style="text;strokeColor=none;fillColor=none;align=left;verticalAlign=middle;spacingLeft=4;spacingRight=4;overflow=hidden;points=[[0,0.5],[1,0.5]];portConstraint=eastwest;rotatable=0;whiteSpace=wrap;html=1;fontSize=15;" parent="kd6A2JkcI9nODMH8M5Jd-116" vertex="1">
          <mxGeometry y="60" width="179" height="30" as="geometry" />
        </mxCell>
        <mxCell id="kd6A2JkcI9nODMH8M5Jd-119" value="&lt;span style=&quot;font-size: 14px; text-wrap-mode: nowrap;&quot;&gt;LocatedAt&lt;/span&gt;" style="swimlane;fontStyle=0;childLayout=stackLayout;horizontal=1;startSize=30;horizontalStack=0;resizeParent=1;resizeParentMax=0;resizeLast=0;collapsible=1;marginBottom=0;whiteSpace=wrap;html=1;fontSize=15;" parent="1" vertex="1">
          <mxGeometry x="537" y="413" width="179" height="90" as="geometry" />
        </mxCell>
        <mxCell id="kd6A2JkcI9nODMH8M5Jd-120" value="StoreBranchId&amp;nbsp;&lt;b&gt;(FK)&lt;/b&gt;" style="text;strokeColor=none;fillColor=none;align=left;verticalAlign=middle;spacingLeft=4;spacingRight=4;overflow=hidden;points=[[0,0.5],[1,0.5]];portConstraint=eastwest;rotatable=0;whiteSpace=wrap;html=1;fontSize=15;" parent="kd6A2JkcI9nODMH8M5Jd-119" vertex="1">
          <mxGeometry y="30" width="179" height="30" as="geometry" />
        </mxCell>
        <mxCell id="kd6A2JkcI9nODMH8M5Jd-121" value="AddressId&amp;nbsp;&lt;b&gt;(FK)&lt;/b&gt;" style="text;strokeColor=none;fillColor=none;align=left;verticalAlign=middle;spacingLeft=4;spacingRight=4;overflow=hidden;points=[[0,0.5],[1,0.5]];portConstraint=eastwest;rotatable=0;whiteSpace=wrap;html=1;fontSize=15;" parent="kd6A2JkcI9nODMH8M5Jd-119" vertex="1">
          <mxGeometry y="60" width="179" height="30" as="geometry" />
        </mxCell>
        <mxCell id="kd6A2JkcI9nODMH8M5Jd-122" value="&lt;span style=&quot;font-size: 14px; text-wrap-mode: nowrap;&quot;&gt;ShopsAt&lt;/span&gt;" style="swimlane;fontStyle=0;childLayout=stackLayout;horizontal=1;startSize=30;horizontalStack=0;resizeParent=1;resizeParentMax=0;resizeLast=0;collapsible=1;marginBottom=0;whiteSpace=wrap;html=1;fontSize=15;" parent="1" vertex="1">
          <mxGeometry x="295" y="605" width="179" height="90" as="geometry" />
        </mxCell>
        <mxCell id="kd6A2JkcI9nODMH8M5Jd-123" value="StoreBranchId&amp;nbsp;&lt;b&gt;(FK)&lt;/b&gt;" style="text;strokeColor=none;fillColor=none;align=left;verticalAlign=middle;spacingLeft=4;spacingRight=4;overflow=hidden;points=[[0,0.5],[1,0.5]];portConstraint=eastwest;rotatable=0;whiteSpace=wrap;html=1;fontSize=15;" parent="kd6A2JkcI9nODMH8M5Jd-122" vertex="1">
          <mxGeometry y="30" width="179" height="30" as="geometry" />
        </mxCell>
        <mxCell id="kd6A2JkcI9nODMH8M5Jd-124" value="CustomerId&amp;nbsp;&lt;b&gt;(FK)&lt;/b&gt;" style="text;strokeColor=none;fillColor=none;align=left;verticalAlign=middle;spacingLeft=4;spacingRight=4;overflow=hidden;points=[[0,0.5],[1,0.5]];portConstraint=eastwest;rotatable=0;whiteSpace=wrap;html=1;fontSize=15;" parent="kd6A2JkcI9nODMH8M5Jd-122" vertex="1">
          <mxGeometry y="60" width="179" height="30" as="geometry" />
        </mxCell>
        <mxCell id="kd6A2JkcI9nODMH8M5Jd-125" value="&lt;span style=&quot;font-size: 14px; text-wrap-mode: nowrap;&quot;&gt;HasLoyaltyCard&lt;/span&gt;" style="swimlane;fontStyle=0;childLayout=stackLayout;horizontal=1;startSize=30;horizontalStack=0;resizeParent=1;resizeParentMax=0;resizeLast=0;collapsible=1;marginBottom=0;whiteSpace=wrap;html=1;fontSize=15;" parent="1" vertex="1">
          <mxGeometry x="62" y="719" width="179" height="90" as="geometry" />
        </mxCell>
        <mxCell id="kd6A2JkcI9nODMH8M5Jd-126" value="LoyaltyCardId&amp;nbsp;&lt;b&gt;(FK)&lt;/b&gt;" style="text;strokeColor=none;fillColor=none;align=left;verticalAlign=middle;spacingLeft=4;spacingRight=4;overflow=hidden;points=[[0,0.5],[1,0.5]];portConstraint=eastwest;rotatable=0;whiteSpace=wrap;html=1;fontSize=15;" parent="kd6A2JkcI9nODMH8M5Jd-125" vertex="1">
          <mxGeometry y="30" width="179" height="30" as="geometry" />
        </mxCell>
        <mxCell id="kd6A2JkcI9nODMH8M5Jd-127" value="CustomerId&amp;nbsp;&lt;b&gt;(FK)&lt;/b&gt;" style="text;strokeColor=none;fillColor=none;align=left;verticalAlign=middle;spacingLeft=4;spacingRight=4;overflow=hidden;points=[[0,0.5],[1,0.5]];portConstraint=eastwest;rotatable=0;whiteSpace=wrap;html=1;fontSize=15;" parent="kd6A2JkcI9nODMH8M5Jd-125" vertex="1">
          <mxGeometry y="60" width="179" height="30" as="geometry" />
        </mxCell>
        <mxCell id="kd6A2JkcI9nODMH8M5Jd-135" value="" style="endArrow=classic;html=1;rounded=0;fontSize=12;startSize=8;endSize=8;curved=1;exitX=0;exitY=0.5;exitDx=0;exitDy=0;entryX=1;entryY=0.5;entryDx=0;entryDy=0;" parent="1" source="kd6A2JkcI9nODMH8M5Jd-111" target="kd6A2JkcI9nODMH8M5Jd-82" edge="1">
          <mxGeometry width="50" height="50" relative="1" as="geometry">
            <mxPoint x="364" y="439" as="sourcePoint" />
            <mxPoint x="414" y="389" as="targetPoint" />
            <Array as="points">
              <mxPoint x="-264" y="302" />
              <mxPoint x="14" y="374" />
            </Array>
          </mxGeometry>
        </mxCell>
        <mxCell id="kd6A2JkcI9nODMH8M5Jd-136" value="" style="endArrow=classic;html=1;rounded=0;fontSize=12;startSize=8;endSize=8;curved=1;exitX=1;exitY=0.5;exitDx=0;exitDy=0;entryX=0;entryY=0.5;entryDx=0;entryDy=0;" parent="1" source="kd6A2JkcI9nODMH8M5Jd-110" target="kd6A2JkcI9nODMH8M5Jd-89" edge="1">
          <mxGeometry width="50" height="50" relative="1" as="geometry">
            <mxPoint x="364" y="439" as="sourcePoint" />
            <mxPoint x="414" y="389" as="targetPoint" />
            <Array as="points">
              <mxPoint x="138" y="81" />
            </Array>
          </mxGeometry>
        </mxCell>
        <mxCell id="kd6A2JkcI9nODMH8M5Jd-137" value="" style="endArrow=classic;html=1;rounded=0;fontSize=12;startSize=8;endSize=8;curved=1;exitX=1;exitY=0.5;exitDx=0;exitDy=0;" parent="1" source="kd6A2JkcI9nODMH8M5Jd-117" target="kd6A2JkcI9nODMH8M5Jd-130" edge="1">
          <mxGeometry width="50" height="50" relative="1" as="geometry">
            <mxPoint x="364" y="413" as="sourcePoint" />
            <mxPoint x="414" y="363" as="targetPoint" />
          </mxGeometry>
        </mxCell>
        <mxCell id="kd6A2JkcI9nODMH8M5Jd-138" style="edgeStyle=none;curved=1;rounded=0;orthogonalLoop=1;jettySize=auto;html=1;exitX=0;exitY=0.5;exitDx=0;exitDy=0;entryX=1;entryY=0.779;entryDx=0;entryDy=0;entryPerimeter=0;fontSize=12;startSize=8;endSize=8;" parent="1" source="kd6A2JkcI9nODMH8M5Jd-118" target="kd6A2JkcI9nODMH8M5Jd-82" edge="1">
          <mxGeometry relative="1" as="geometry" />
        </mxCell>
        <mxCell id="kd6A2JkcI9nODMH8M5Jd-139" style="edgeStyle=none;curved=1;rounded=0;orthogonalLoop=1;jettySize=auto;html=1;exitX=1;exitY=0.5;exitDx=0;exitDy=0;entryX=1;entryY=0.5;entryDx=0;entryDy=0;fontSize=12;startSize=8;endSize=8;" parent="1" source="kd6A2JkcI9nODMH8M5Jd-114" target="kd6A2JkcI9nODMH8M5Jd-89" edge="1">
          <mxGeometry relative="1" as="geometry">
            <Array as="points">
              <mxPoint x="579" y="202" />
            </Array>
          </mxGeometry>
        </mxCell>
        <mxCell id="kd6A2JkcI9nODMH8M5Jd-140" style="edgeStyle=none;curved=1;rounded=0;orthogonalLoop=1;jettySize=auto;html=1;exitX=1;exitY=0.5;exitDx=0;exitDy=0;entryX=1;entryY=0.5;entryDx=0;entryDy=0;fontSize=12;startSize=8;endSize=8;" parent="1" source="kd6A2JkcI9nODMH8M5Jd-115" target="kd6A2JkcI9nODMH8M5Jd-130" edge="1">
          <mxGeometry relative="1" as="geometry">
            <Array as="points">
              <mxPoint x="522" y="346" />
            </Array>
          </mxGeometry>
        </mxCell>
        <mxCell id="kd6A2JkcI9nODMH8M5Jd-141" style="edgeStyle=none;curved=1;rounded=0;orthogonalLoop=1;jettySize=auto;html=1;exitX=0;exitY=0.5;exitDx=0;exitDy=0;entryX=1;entryY=0.5;entryDx=0;entryDy=0;fontSize=12;startSize=8;endSize=8;" parent="1" source="kd6A2JkcI9nODMH8M5Jd-120" target="kd6A2JkcI9nODMH8M5Jd-130" edge="1">
          <mxGeometry relative="1" as="geometry" />
        </mxCell>
        <mxCell id="kd6A2JkcI9nODMH8M5Jd-143" style="edgeStyle=none;curved=1;rounded=0;orthogonalLoop=1;jettySize=auto;html=1;exitX=0;exitY=0.5;exitDx=0;exitDy=0;entryX=0;entryY=0.5;entryDx=0;entryDy=0;fontSize=12;startSize=8;endSize=8;" parent="1" source="kd6A2JkcI9nODMH8M5Jd-123" edge="1">
          <mxGeometry relative="1" as="geometry">
            <mxPoint x="295" y="722" as="sourcePoint" />
            <mxPoint x="320" y="462.5" as="targetPoint" />
            <Array as="points">
              <mxPoint x="164" y="617" />
            </Array>
          </mxGeometry>
        </mxCell>
        <mxCell id="kd6A2JkcI9nODMH8M5Jd-144" style="edgeStyle=none;curved=1;rounded=0;orthogonalLoop=1;jettySize=auto;html=1;exitX=1;exitY=0.5;exitDx=0;exitDy=0;entryX=1;entryY=0.5;entryDx=0;entryDy=0;fontSize=12;startSize=8;endSize=8;" parent="1" source="kd6A2JkcI9nODMH8M5Jd-124" target="kd6A2JkcI9nODMH8M5Jd-132" edge="1">
          <mxGeometry relative="1" as="geometry">
            <Array as="points">
              <mxPoint x="549" y="705" />
            </Array>
          </mxGeometry>
        </mxCell>
        <mxCell id="kd6A2JkcI9nODMH8M5Jd-145" style="edgeStyle=none;curved=1;rounded=0;orthogonalLoop=1;jettySize=auto;html=1;exitX=1;exitY=0.5;exitDx=0;exitDy=0;entryX=0;entryY=0.5;entryDx=0;entryDy=0;fontSize=12;startSize=8;endSize=8;" parent="1" source="kd6A2JkcI9nODMH8M5Jd-127" target="kd6A2JkcI9nODMH8M5Jd-132" edge="1">
          <mxGeometry relative="1" as="geometry" />
        </mxCell>
        <mxCell id="kd6A2JkcI9nODMH8M5Jd-146" style="edgeStyle=none;curved=1;rounded=0;orthogonalLoop=1;jettySize=auto;html=1;exitX=0;exitY=0.5;exitDx=0;exitDy=0;entryX=1;entryY=0.5;entryDx=0;entryDy=0;fontSize=12;startSize=8;endSize=8;" parent="1" source="kd6A2JkcI9nODMH8M5Jd-126" target="kd6A2JkcI9nODMH8M5Jd-133" edge="1">
          <mxGeometry relative="1" as="geometry" />
        </mxCell>
        <mxCell id="kd6A2JkcI9nODMH8M5Jd-147" style="edgeStyle=none;curved=1;rounded=0;orthogonalLoop=1;jettySize=auto;html=1;exitX=1;exitY=0.5;exitDx=0;exitDy=0;entryX=0;entryY=0.5;entryDx=0;entryDy=0;fontSize=12;startSize=8;endSize=8;" parent="1" source="kd6A2JkcI9nODMH8M5Jd-121" target="kd6A2JkcI9nODMH8M5Jd-59" edge="1">
          <mxGeometry relative="1" as="geometry" />
        </mxCell>
        <mxCell id="C9wvfNvHQycP_ftXC3md-1" value="&lt;span style=&quot;font-size: 14px; text-wrap-mode: nowrap;&quot;&gt;HasName&lt;/span&gt;" style="swimlane;fontStyle=0;childLayout=stackLayout;horizontal=1;startSize=30;horizontalStack=0;resizeParent=1;resizeParentMax=0;resizeLast=0;collapsible=1;marginBottom=0;whiteSpace=wrap;html=1;fontSize=15;" vertex="1" parent="1">
          <mxGeometry x="570" y="613" width="179" height="90" as="geometry" />
        </mxCell>
        <mxCell id="C9wvfNvHQycP_ftXC3md-2" value="StoreBranchId&amp;nbsp;&lt;b&gt;(FK)&lt;/b&gt;" style="text;strokeColor=none;fillColor=none;align=left;verticalAlign=middle;spacingLeft=4;spacingRight=4;overflow=hidden;points=[[0,0.5],[1,0.5]];portConstraint=eastwest;rotatable=0;whiteSpace=wrap;html=1;fontSize=15;" vertex="1" parent="C9wvfNvHQycP_ftXC3md-1">
          <mxGeometry y="30" width="179" height="30" as="geometry" />
        </mxCell>
        <mxCell id="C9wvfNvHQycP_ftXC3md-3" value="name" style="text;strokeColor=none;fillColor=none;align=left;verticalAlign=middle;spacingLeft=4;spacingRight=4;overflow=hidden;points=[[0,0.5],[1,0.5]];portConstraint=eastwest;rotatable=0;whiteSpace=wrap;html=1;fontSize=15;" vertex="1" parent="C9wvfNvHQycP_ftXC3md-1">
          <mxGeometry y="60" width="179" height="30" as="geometry" />
        </mxCell>
        <mxCell id="C9wvfNvHQycP_ftXC3md-4" value="" style="endArrow=classic;html=1;rounded=0;entryX=0;entryY=0.5;entryDx=0;entryDy=0;exitX=1;exitY=0.5;exitDx=0;exitDy=0;" edge="1" parent="1" source="kd6A2JkcI9nODMH8M5Jd-130" target="C9wvfNvHQycP_ftXC3md-2">
          <mxGeometry width="50" height="50" relative="1" as="geometry">
            <mxPoint x="341" y="704" as="sourcePoint" />
            <mxPoint x="391" y="654" as="targetPoint" />
          </mxGeometry>
        </mxCell>
      </root>
    </mxGraphModel>
  </diagram>
</mxfile>
